<?xml version="1.0" encoding="UTF-8"?> <svg xmlns="http://www.w3.org/2000/svg" xmlns:xlink="http://www.w3.org/1999/xlink" width="222px" height="46px" viewBox="0 0 222 46"><!-- Generator: Sketch 51.2 (57519) - http://www.bohemiancoding.com/sketch --><title>Logo SSL</title><desc>Created with Sketch.</desc><defs></defs><g id="Symbols" stroke="none" stroke-width="1" fill="none" fill-rule="evenodd"><g id="Menu-Principal" transform="translate(-80.000000, -32.000000)"><g id="Logo-SSL" transform="translate(80.000000, 32.000000)"><path d="M15.9230769,46 L22.8461538,39.030303 L22.8461538,46 L15.9230769,46 Z M22.4971904,0 L45,39.030303 L22.4971904,39.030303 L22.4971904,32.3522837 L15.8310094,39.030303 L0,39.030303 L22.4971904,0 Z M22.4971904,12.796098 L11.2251821,32.3522837 L33.7752862,32.3522837 L22.4971904,12.796098 Z" id="Marca-SSL" fill="#8DC13F"></path><path d="M198.00878,6.75637446 L198.00878,3 L202.105426,3 L202.105426,6.75637446 L198.00878,6.75637446 Z M204.021946,25.6334101 L195.822089,25.6334101 L195.822089,23.0138393 L198.00878,23.0138393 L198.00878,11.868944 L195.822089,11.868944 L195.822089,9.25312354 L202.105426,9.25312354 L202.105426,23.0138393 L204.021946,23.0138393 L204.021946,25.6334101 Z M193.271418,25.6334101 L180.060746,25.6334101 L180.060746,22.460673 L188.713701,11.7151825 L183.448663,11.7151825 L183.448663,14.3300654 L180.306525,14.3300654 L180.306525,9.25312354 L193.271418,9.25312354 L193.271418,12.2678801 L184.494166,23.1671321 L190.134441,23.1671321 L190.134441,20.1495628 L193.271418,20.1495628 L193.271418,25.6334101 Z M171.804134,25.6334101 L171.804134,22.8896113 C170.973454,24.9817989 169.089766,26 166.906358,26 C164.412911,26 162.744985,24.5823941 162.194794,22.8896113 C161.97575,21.1049467 161.97575,20.4584921 161.97575,19.9958013 L161.97575,11.868944 L159.882398,11.868944 L159.882398,9.25312354 L166.077085,9.25312354 L166.077085,19.0099464 C166.077085,19.9357968 166.04519,21.012596 166.473429,21.8746917 C166.848197,22.6430304 167.707019,23.0138393 168.540044,23.0138393 C169.865568,23.0138393 170.692964,22.0612682 171.154974,20.9193078 C171.557416,19.8729796 171.527397,18.4858447 171.527397,17.3781057 L171.527397,11.868944 L169.312563,11.868944 L169.312563,9.25312354 L175.622635,9.25312354 L175.622635,23.0138393 L177.78259,23.0138393 L177.78259,25.6334101 L171.804134,25.6334101 Z M159.235584,25.6334101 L142.140744,25.6334101 L142.140744,22.861953 L144.729876,22.861953 L144.729876,6.35696961 L142.140744,6.35696961 L142.140744,3.58598129 L152.276353,3.58598129 L152.276353,6.35696961 L148.948004,6.35696961 L148.948004,22.861953 L155.539035,22.861953 L155.539035,17.8407965 L159.235584,17.8407965 L159.235584,25.6334101 Z M126.561859,25.6334101 L126.561859,23.0138393 C125.636901,25.0793062 123.665971,26 121.444101,26 C119.166415,26 116.951581,24.7084972 116.57869,23.0138393 C116.243322,21.9346962 116.206268,21.3829362 116.206268,20.8869617 C116.206268,19.5077961 116.763963,18.1178485 117.81228,17.1938732 C118.612472,16.4569431 120.46145,15.8081446 121.537441,15.7781424 C122.309022,15.7495465 123.139233,15.6248497 123.911282,15.6248497 C124.650029,15.6248497 125.390183,15.7143876 126.130337,15.7495465 C126.344691,13.7768991 126.067954,11.3143713 123.511186,11.3143713 C121.724591,11.3143713 120.85967,12.5486823 120.891565,14.2695922 L116.828222,14.2695922 C116.918748,10.266168 119.909853,8.85043719 123.511186,8.85043719 C126.067954,8.85043719 128.472751,9.52923792 129.577354,12.0536453 C129.827356,12.6063429 129.88411,12.9466808 129.979326,13.5926666 C130.071259,14.3019383 130.099871,14.9769888 130.099871,15.6867293 L130.099871,23.0410289 L132.227932,23.0410289 L132.227932,25.6334101 L126.561859,25.6334101 Z M126.252758,18.057844 L124.308094,18.057844 C122.218965,18.057844 120.305258,18.5486619 120.305258,21.0407232 C120.305258,22.30363 121.14016,23.3227687 122.46193,23.3227687 C125.448814,23.3227687 126.156604,20.4584921 126.252758,18.057844 Z M115.164517,20.21238 L115.164517,21.320119 C115.164517,23.2594827 114.54866,25.0436785 112.515816,25.6915394 C112.174351,25.8143611 111.156521,26 110.820216,26 C110.083345,26 109.649008,25.875772 108.938404,25.6915394 C107.523293,25.2602572 106.75312,24.2758087 106.447771,22.8896113 C106.293924,22.2150297 106.324412,20.7655463 106.324412,20.0243972 L106.324412,11.868944 L103.888189,11.868944 L103.888189,9.25312354 L106.324412,9.25312354 L106.324412,6.45072662 L110.418243,5.06499806 L110.418243,9.25312354 L114.518641,9.25312354 L114.518641,11.868944 L110.418243,11.868944 L110.418243,22.1203351 C110.418243,22.4278581 110.604924,23.0410289 110.913556,23.1671321 C112.792553,23.9387522 112.669663,21.320119 112.634954,20.21238 L115.164517,20.21238 Z M91.724426,9.25312354 L91.724426,11.9294173 C92.7718051,9.83769847 94.3421702,8.85043719 96.6526895,8.85043719 C99.1766245,8.85043719 101.085172,10.4218046 101.455718,11.9294173 C101.674293,12.7933881 101.674293,13.4374987 101.674293,14.1481768 L101.674293,23.0138393 L103.70573,23.0138393 L103.70573,25.6334101 L95.6658173,25.6334101 L95.6658173,23.0138393 L97.5757715,23.0138393 L97.5757715,15.6553207 C97.5757715,14.8546359 97.6034452,14.2081813 97.3618866,13.4074965 C97.0837425,12.420704 96.2544696,11.6823676 95.1751954,11.6823676 C92.1840908,11.6823676 91.9983487,14.4838269 91.9983487,16.7649349 L91.9983487,23.0138393 L93.9697479,23.0138393 L93.9697479,25.6334101 L85.7459692,25.6334101 L85.7459692,23.0138393 L87.9040486,23.0138393 L87.9040486,11.868944 L85.7459692,11.868944 L85.7459692,9.25312354 L91.724426,9.25312354 Z M78.5981814,25.6334101 L78.5981814,23.0138393 C77.6774447,25.0793062 75.7018241,26 73.4874592,26 C71.2069589,26 68.9897797,24.7084972 68.6201717,23.0138393 C68.2801136,21.9346962 68.2505637,21.3829362 68.2505637,20.8869617 C68.2505637,19.5077961 68.8007543,18.1178485 69.853762,17.1938732 C70.6516087,16.4569431 72.4996489,15.8081446 73.5793922,15.7781424 C74.3495652,15.7495465 75.1811833,15.6248497 75.9513564,15.6248497 C76.6886963,15.6248497 77.4316647,15.7143876 78.1685355,15.7495465 C78.3857037,13.7768991 78.1094358,11.3143713 75.5503223,11.3143713 C73.7656033,11.3143713 72.900214,12.5486823 72.9349233,14.2695922 L68.869235,14.2695922 C68.9588227,10.266168 71.9461749,8.85043719 75.5503223,8.85043719 C78.1094358,8.85043719 80.5104808,9.52923792 81.6160216,12.0536453 C81.8669611,12.6063429 81.9246537,12.9466808 82.01987,13.5926666 C82.1160244,14.3019383 82.143229,14.9769888 82.143229,15.6867293 L82.143229,23.0410289 L84.2694133,23.0410289 L84.2694133,25.6334101 L78.5981814,25.6334101 Z M78.2909565,18.057844 L76.3537976,18.057844 C74.2566942,18.057844 72.34674,18.5486619 72.34674,21.0407232 C72.34674,22.30363 73.1807033,23.3227687 74.5020051,23.3227687 C77.4921716,23.3227687 78.2008997,20.4584921 78.2909565,18.057844 Z M66.0943605,10.8540244 L62.5216392,10.8540244 C62.5216392,10.6083811 62.5216392,10.3927399 62.4869298,10.1438151 C62.3668541,7.71316471 61.2003374,5.92381224 58.6093288,5.92381224 C57.6515374,5.92381224 56.6684176,6.08038644 56.0216035,6.84872511 C55.4976795,7.49799238 55.2823875,8.26586226 55.2823875,9.12842672 C55.2823875,10.9735646 57.1013468,11.6561156 58.5755575,12.1750606 L61.2561538,13.1918554 C62.4869298,13.6226688 63.4756782,14.0239488 64.5263406,14.7941626 C65.6637765,15.5925035 66.0338536,16.5192915 66.4034616,17.8117319 C66.5577777,18.3644294 66.6182846,19.0408862 66.6182846,19.6263987 C66.6182846,21.4129385 66.0943605,22.6149033 65.2941685,23.568412 C63.9372192,25.5710617 61.3827962,26 59.6276271,26 C57.5281784,26 55.5600625,25.4773047 54.4512384,23.568412 L54.4512384,25.6334101 L51,25.6334101 L51,17.9654933 L54.6365115,17.9654933 C54.6365115,20.6122536 55.6548098,23.1671321 58.6693667,23.1671321 C60.642173,23.1671321 62.2753902,22.1522125 62.2753902,19.9958013 C62.2753902,17.8407965 60.7054941,17.2257506 59.01177,16.5778897 L56.1773267,15.5034344 C54.6979565,14.9769888 53.5581754,14.5161731 52.4479442,13.4074965 C51.4610719,12.3958584 51,11.0373194 51,9.61971343 C51,7.61893892 51.8635132,6.11179504 52.3560112,5.43299431 C53.2823765,4.14102277 55.0056505,3.21798504 57.5281784,3.21798504 C59.4395397,3.21798504 61.5361741,3.64926727 62.6464054,5.43299431 L62.6464054,3.58598129 L66.0943605,3.58598129 L66.0943605,10.8540244 Z M216.332521,25.6334101 L216.332521,23.0138393 C215.405686,25.0793062 213.43757,26 211.219922,26 C208.941298,26 206.719897,24.7084972 206.347475,23.0138393 C206.016798,21.9346962 205.979274,21.3829362 205.979274,20.8869617 C205.979274,19.5077961 206.535093,18.1178485 207.582003,17.1938732 C208.384072,16.4569431 210.23305,15.8081446 211.315138,15.7781424 C212.078745,15.7495465 212.914584,15.6248497 213.683819,15.6248497 C214.421628,15.6248497 215.158968,15.7143876 215.900529,15.7495465 C216.115821,13.7768991 215.839084,11.3143713 213.284192,11.3143713 C211.494314,11.3143713 210.632677,12.5486823 210.662696,14.2695922 L206.60076,14.2695922 C206.689878,10.266168 209.679576,8.85043719 213.284192,8.85043719 C215.839084,8.85043719 218.241537,9.52923792 219.349423,12.0536453 C219.597548,12.6063429 219.657586,12.9466808 219.748581,13.5926666 C219.844266,14.3019383 219.874754,14.9769888 219.874754,15.6867293 L219.874754,23.0410289 L222,23.0410289 L222,25.6334101 L216.332521,25.6334101 Z M216.024357,18.057844 L214.083915,18.057844 C211.991033,18.057844 210.081548,18.5486619 210.081548,21.0407232 C210.081548,22.30363 210.910352,23.3227687 212.231185,23.3227687 C215.220413,23.3227687 215.931486,20.4584921 216.024357,18.057844 Z" id="Tipo-SantaLuzia" fill="#462300"></path><path d="M55.7037126,33.2814787 L54.9832263,33.4394156 C54.8018055,32.7458055 54.2306134,32.1904488 53.3013041,32.1904488 C52.4622329,32.1904488 51.9600185,32.585994 51.9496246,33.2997563 C51.9297817,34.8678775 56.0126949,34.4704577 56.0126949,36.7748366 C56.0126949,37.8166577 55.4226048,38.877225 53.5809946,38.877225 C52.0020665,38.877225 51.3822121,37.8672725 51,37.0124449 L51.7299353,36.7514038 C52.0204921,37.5092197 52.5586127,38.2018925 53.6206804,38.2018925 C54.6794409,38.2018925 55.2109472,37.6474731 55.2109472,36.9126213 C55.2109472,35.0876769 51.1492942,35.6210068 51.1492942,33.3597442 C51.1492942,32.3272962 52.0204921,31.5108984 53.3220919,31.5108984 C54.4413261,31.5108984 55.321973,32.0981237 55.7037126,33.2814787 Z M62.1846877,31.6123623 L66.5165821,31.6123623 L66.5165821,32.2872262 L62.9826558,32.2872262 L62.9826558,34.6876795 L65.4956176,34.6876795 L65.4956176,35.364418 L62.9826558,35.364418 L62.9826558,38.1041779 L66.7164285,38.1041779 L66.7164285,38.7771671 L62.1846877,38.7771671 L62.1846877,31.6123623 Z M73.5100711,38.777214 L72.7078509,38.777214 L72.7078509,31.6124091 L75.0285255,31.6124091 C76.5909178,31.6124091 77.4413278,32.3055506 77.4413278,33.4959355 C77.4413278,34.5086999 76.8526551,35.0874895 76.0003552,35.3644648 L77.5310933,38.777214 L76.6608404,38.777214 L75.1995524,35.5224017 L73.5100711,35.5224017 L73.5100711,38.777214 Z M73.5100711,32.287273 L73.5100711,34.8475379 L74.9590753,34.8475379 C76.0598839,34.8475379 76.6414699,34.4421509 76.6414699,33.5357712 C76.6414699,32.5754961 75.9781501,32.287273 74.9496263,32.287273 L73.5100711,32.287273 Z M84.6749631,38.777214 L83.8732154,38.777214 L83.8732154,31.6124091 L86.1910553,31.6124091 C87.7567547,31.6124091 88.605275,32.3055506 88.605275,33.4959355 C88.605275,34.5086999 88.0137675,35.0874895 87.1643024,35.3644648 L88.6936231,38.777214 L87.82526,38.777214 L86.3644445,35.5224017 L84.6749631,35.5224017 L84.6749631,38.777214 Z M84.6749631,32.287273 L84.6749631,34.8475379 L86.1234949,34.8475379 C87.2238311,34.8475379 87.8058895,34.4421509 87.8058895,33.5357712 C87.8058895,32.5754961 87.1430421,32.287273 86.1149908,32.287273 L84.6749631,32.287273 Z M95.1168176,38.777214 L94.2777464,38.777214 L96.4982616,31.6124091 L97.6897806,31.6124091 L99.907461,38.777214 L99.0698071,38.777214 L98.3861719,36.5346975 L95.7990355,36.5346975 L95.1168176,38.777214 Z M97.0359097,32.1682345 L95.9969921,35.8617083 L98.1830184,35.8617083 L97.1469355,32.1682345 L97.0359097,32.1682345 Z M109.639129,36.4952836 L110.36056,36.6340056 C110.061027,37.8848471 109.392037,38.767794 108.080516,38.865743 L107.680351,39.355488 L107.700194,39.3756401 C107.791377,39.3433029 107.904292,39.3236194 108.000199,39.3236194 C108.58273,39.3236194 108.848247,39.7280691 108.842578,40.1597007 C108.830767,40.7038097 108.382412,41 107.629326,41 C107.222547,41 106.93199,40.902051 106.691513,40.7942602 L106.859705,40.3555987 C107.048213,40.4741686 107.300501,40.5449355 107.523025,40.5449355 C107.880197,40.5449355 108.080516,40.387936 108.080516,40.1147098 C108.080516,39.9089701 107.919883,39.7397854 107.672792,39.7397854 C107.529167,39.7397854 107.362392,39.7618122 107.209791,39.8203942 L107.041126,39.6301201 L107.602869,38.865743 C106.101423,38.767794 105.058253,37.5877195 105.058253,35.1938274 C105.058253,32.8650784 106.082052,31.510664 107.822558,31.510664 C109.162899,31.510664 109.944331,32.2872262 110.263708,33.5980555 L109.519126,33.8159803 C109.258806,32.8036845 108.79864,32.1902145 107.720037,32.1902145 C106.681119,32.1902145 105.859056,33.1406478 105.859056,35.1938274 C105.859056,37.2699711 106.681119,38.2021268 107.880197,38.2021268 C108.993289,38.2021268 109.423219,37.3697947 109.639129,36.4952836 Z M119.517209,30 L120.016116,30 C119.963201,30.4803719 119.585714,31.0540062 119.044286,31.0540062 C118.784439,31.0540062 118.515142,30.9574631 118.265688,30.8684186 C118.006786,30.7714069 117.755442,30.6786131 117.513548,30.6786131 C117.302835,30.6786131 117.107713,30.9255946 117.094957,31.1467999 L116.595578,31.1467999 C116.654161,30.5497329 117.002829,30.0613939 117.661425,30.0613939 C117.935446,30.0613939 118.173088,30.1527817 118.394667,30.2408889 C118.627585,30.3407125 118.836408,30.4321003 119.044286,30.4321003 C119.29374,30.4321003 119.477995,30.2558859 119.517209,30 Z M116.323446,38.7774483 L115.486737,38.7774483 L117.703945,31.6121748 L118.896882,31.6121748 L121.116924,38.7774483 L120.275963,38.7774483 L119.597525,36.5344632 L117.002829,36.5344632 L116.323446,38.7774483 Z M118.243483,32.1684689 L117.206455,35.8619426 L119.393899,35.8619426 L118.352619,32.1684689 L118.243483,32.1684689 Z M126.359419,35.1936399 C126.359419,32.803497 127.408258,31.5109452 129.176639,31.5109452 C130.949271,31.5109452 132,32.803497 132,35.1936399 C132,37.5875321 130.949271,38.8772719 129.176639,38.8772719 C127.408258,38.8772719 126.359419,37.5875321 126.359419,35.1936399 Z M127.160222,35.1936399 C127.160222,37.2299479 127.91,38.2019394 129.176639,38.2019394 C130.451781,38.2019394 131.202032,37.2299479 131.202032,35.1936399 C131.202032,33.1601438 130.451781,32.1904957 129.176639,32.1904957 C127.91,32.1904957 127.160222,33.1601438 127.160222,35.1936399 Z" id="Ass-Serracao" fill="#462300"></path></g></g></g></svg> 